# xmcd
# 
# Track frame offsets:
#     150
#     6267
#     22272
#     37720
#     59290
#     81745
#     102630
#     122277
#     136667
#     160342
#     179070
#     196342
#     213757
#     234620
# 
# Disc length: 3330
# 
# Revision: 7
# Processed by: cddbd v1.5.2PL0 Copyright (c) Steve Scherf et al.
# Submitted via: fre:ac v1.0.31
# 
DISCID=be0d000e
DTITLE=W.A.S.P. - Inside The Electric Circus
DYEAR=1986
DGENRE=Hard Rock
TTITLE0=The Big Welcome
TTITLE1=Inside The Electric Circus
TTITLE2=I Don't Need No Doctor
TTITLE3=9.5.-N.A.S.T.Y.
TTITLE4=Restless Gypsy
TTITLE5=Shoot From The Hip
TTITLE6=I'm Alive
TTITLE7=Easy Living
TTITLE8=Sweet Cheetah
TTITLE9=Mantronic
TTITLE10=King Of Sodom And Gomorrah
TTITLE11=The Rock Rolls On
TTITLE12=Flesh And Fire (Bonus Track)
TTITLE13=D.B. Blues (Bonus Track)
EXTD=
EXTT0=
EXTT1=
EXTT2=
EXTT3=
EXTT4=
EXTT5=
EXTT6=
EXTT7=
EXTT8=
EXTT9=
EXTT10=
EXTT11=
EXTT12=
EXTT13=
PLAYORDER=
